<svg viewBox="0 0 512 512" xmlns="http://www.w3.org/2000/svg" role="img" aria-label="Wolcen — a determined cloud">
  <defs>
    <linearGradient id="bg" x1="0" y1="0" x2="1" y2="1">
      <stop offset="0%" stop-color="#0c0c18"/>
      <stop offset="100%" stop-color="#14142a"/>
    </linearGradient>
    <linearGradient id="cloudGrad" x1="0" y1="0" x2="0.8" y2="1">
      <stop offset="0%" stop-color="#f0f4f8"/>
      <stop offset="40%" stop-color="#dbe4ed"/>
      <stop offset="100%" stop-color="#a0b0c4"/>
    </linearGradient>
    <linearGradient id="cloudHighlight" x1="0.3" y1="0" x2="0.7" y2="1">
      <stop offset="0%" stop-color="#ffffff" stop-opacity="0.4"/>
      <stop offset="100%" stop-color="#ffffff" stop-opacity="0"/>
    </linearGradient>
    <radialGradient id="glow" cx="50%" cy="55%" r="40%">
      <stop offset="0%" stop-color="#f97316" stop-opacity="0.25"/>
      <stop offset="70%" stop-color="#f97316" stop-opacity="0.05"/>
      <stop offset="100%" stop-color="#f97316" stop-opacity="0"/>
    </radialGradient>
    <filter id="cloudShadow">
      <feDropShadow dx="0" dy="6" stdDeviation="12" flood-color="#000" flood-opacity="0.35"/>
    </filter>
  </defs>
  <rect width="512" height="512" rx="80" fill="url(#bg)"/>
  <g opacity="0.035" stroke="#f97316" stroke-width="0.8">
    <line x1="0" y1="128" x2="512" y2="128"/><line x1="0" y1="256" x2="512" y2="256"/>
    <line x1="0" y1="384" x2="512" y2="384"/><line x1="128" y1="0" x2="128" y2="512"/>
    <line x1="256" y1="0" x2="256" y2="512"/><line x1="384" y1="0" x2="384" y2="512"/>
  </g>
  <ellipse cx="256" cy="270" rx="180" ry="140" fill="url(#glow)"/>
  <g filter="url(#cloudShadow)">
    <rect x="108" y="260" width="296" height="60" rx="8" fill="url(#cloudGrad)"/>
    <ellipse cx="256" cy="255" rx="148" ry="82" fill="url(#cloudGrad)"/>
    <circle cx="152" cy="260" r="72" fill="url(#cloudGrad)"/>
    <circle cx="358" cy="264" r="65" fill="url(#cloudGrad)"/>
    <circle cx="215" cy="195" r="65" fill="url(#cloudGrad)"/>
    <circle cx="305" cy="205" r="52" fill="url(#cloudGrad)"/>
    <circle cx="258" cy="185" r="42" fill="url(#cloudGrad)"/>
  </g>
  <circle cx="215" cy="190" r="40" fill="url(#cloudHighlight)"/>
  <circle cx="305" cy="200" r="32" fill="url(#cloudHighlight)"/>
  <ellipse cx="216" cy="248" rx="13" ry="14" fill="#1e293b"/>
  <ellipse cx="296" cy="248" rx="13" ry="14" fill="#1e293b"/>
  <circle cx="221" cy="243" r="4.5" fill="#fff" opacity="0.8"/>
  <circle cx="301" cy="243" r="4.5" fill="#fff" opacity="0.8"/>
  <circle cx="212" cy="252" r="2" fill="#fff" opacity="0.3"/>
  <circle cx="292" cy="252" r="2" fill="#fff" opacity="0.3"/>
  <path d="M 235 282 Q 256 288 277 282" stroke="#475569" stroke-width="3.5" fill="none" stroke-linecap="round"/>
  <text x="256" y="388" font-family="'Courier New', monospace" font-size="20" fill="#f97316" opacity="0.85" text-anchor="middle">$ wolcen --earn 100</text>
  <text x="256" y="440" font-family="Georgia, 'Times New Roman', serif" font-size="15" fill="#4b5563" text-anchor="middle" font-style="italic" letter-spacing="3">wolcenes lifgewin</text>
</svg>
